<svg width="24" height="24" viewBox="0 0 24 24" fill="none" xmlns="http://www.w3.org/2000/svg">
<path d="M7.73547 4.39642L14.652 11.4239C14.8037 11.5773 14.8887 11.7842 14.8887 11.9999C14.8887 12.2156 14.8037 12.4226 14.652 12.5759L7.73697 19.6049C7.58536 19.7592 7.5004 19.9669 7.5004 20.1832C7.5004 20.3995 7.58536 20.6071 7.73697 20.7614C7.81104 20.8374 7.89956 20.8978 7.99732 20.939C8.09509 20.9802 8.20012 21.0015 8.30622 21.0015C8.41232 21.0015 8.51735 20.9802 8.61512 20.939C8.71288 20.8978 8.8014 20.8374 8.87547 20.7614L15.7905 13.7354C16.2449 13.2726 16.4994 12.65 16.4994 12.0014C16.4994 11.3529 16.2449 10.7302 15.7905 10.2674L8.87547 3.24142C8.80138 3.16522 8.71276 3.10465 8.61486 3.06329C8.51696 3.02192 8.41175 3.00061 8.30547 3.00061C8.19919 3.00061 8.09398 3.02192 7.99608 3.06329C7.89817 3.10465 7.80956 3.16522 7.73547 3.24142C7.58386 3.39571 7.4989 3.60336 7.4989 3.81968C7.4989 4.03598 7.58386 4.24364 7.73547 4.39792" fill="#CCCCCC"/>
</svg>
