<svg width="92" height="92" viewBox="0 0 92 92" fill="none" xmlns="http://www.w3.org/2000/svg">
<mask id="path-1-inside-1_2005_1388" fill="white">
<path d="M79 36C79 54.2254 64.2254 69 46 69C27.7746 69 13 54.2254 13 36C13 17.7746 27.7746 3 46 3C64.2254 3 79 17.7746 79 36ZM19.6 36C19.6 50.5803 31.4197 62.4 46 62.4C60.5803 62.4 72.4 50.5803 72.4 36C72.4 21.4197 60.5803 9.6 46 9.6C31.4197 9.6 19.6 21.4197 19.6 36Z"/>
</mask>
<path d="M79 36C79 54.2254 64.2254 69 46 69C27.7746 69 13 54.2254 13 36C13 17.7746 27.7746 3 46 3C64.2254 3 79 17.7746 79 36ZM19.6 36C19.6 50.5803 31.4197 62.4 46 62.4C60.5803 62.4 72.4 50.5803 72.4 36C72.4 21.4197 60.5803 9.6 46 9.6C31.4197 9.6 19.6 21.4197 19.6 36Z" fill="#F6F6F6" stroke="#F6F6F6" stroke-width="6" mask="url(#path-1-inside-1_2005_1388)"/>
<path d="M46 6.3C46 6.11664 46 6.02496 45.9895 5.90001C45.8664 4.42948 44.4261 3.12647 42.9506 3.15075C42.8253 3.15281 42.7853 3.15682 42.7054 3.16483C36.8031 3.75701 31.1472 5.93232 26.349 9.48893C20.6638 13.703 16.4839 19.633 14.4261 26.4038C12.3682 33.1747 12.5415 40.4277 14.9202 47.0926C17.299 53.7575 21.7572 59.4812 27.6371 63.419C33.5169 67.3568 40.5069 69.3002 47.5755 68.9624C54.6441 68.6245 61.4169 66.0233 66.8943 61.5426C72.3718 57.062 76.2638 50.9392 77.9961 44.0778C79.4581 38.2869 79.3162 32.2287 77.6167 26.5454C77.5937 26.4685 77.5822 26.43 77.5363 26.3133C76.997 24.9397 75.2438 24.104 73.8371 24.55C73.7176 24.5879 73.6328 24.6228 73.4633 24.6926C73.1216 24.8333 72.9508 24.9036 72.8537 24.952C71.5333 25.6109 70.9657 26.7644 71.2491 28.2126C71.27 28.3191 71.3382 28.5697 71.4745 29.071C72.6608 33.4322 72.7122 38.0444 71.5969 42.4622C70.2111 47.9513 67.0974 52.8496 62.7155 56.4341C58.3335 60.0187 52.9153 62.0996 47.2604 62.3699C41.6055 62.6402 36.0135 61.0855 31.3097 57.9352C26.6058 54.785 23.0392 50.206 21.1362 44.8741C19.2332 39.5422 19.0946 33.7398 20.7408 28.3231C22.3871 22.9064 25.731 18.1624 30.2792 14.7911C33.9396 12.0779 38.2241 10.3695 42.7085 9.80596C43.2239 9.74119 43.4817 9.70881 43.588 9.68754C45.0351 9.39829 45.8856 8.43424 45.9922 6.96242C46 6.85422 46 6.66948 46 6.3Z" fill="url(#paint0_linear_2005_1388)"/>
<g filter="url(#filter0_d_2005_1388)">
<circle cx="46" cy="36" r="24" fill="url(#paint1_linear_2005_1388)"/>
</g>
<path d="M29.6619 32.416C30.3392 31.872 30.8699 31.4267 31.2539 31.08C31.6379 30.728 31.9606 30.3627 32.2219 29.984C32.4886 29.6 32.6219 29.224 32.6219 28.856C32.6219 28.5093 32.5366 28.2373 32.3659 28.04C32.2006 27.8373 31.9312 27.736 31.5579 27.736C31.1952 27.736 30.9126 27.8507 30.7099 28.08C30.5126 28.304 30.4059 28.6053 30.3899 28.984H29.6859C29.7072 28.3867 29.8886 27.9253 30.2299 27.6C30.5712 27.2747 31.0112 27.112 31.5499 27.112C32.0992 27.112 32.5339 27.264 32.8539 27.568C33.1792 27.872 33.3419 28.2907 33.3419 28.824C33.3419 29.2667 33.2086 29.6987 32.9419 30.12C32.6806 30.536 32.3819 30.904 32.0459 31.224C31.7099 31.5387 31.2806 31.9067 30.7579 32.328H33.5099V32.936H29.6619V32.416ZM34.3355 28.672C34.3728 28.1813 34.5621 27.7973 34.9035 27.52C35.2448 27.2427 35.6875 27.104 36.2315 27.104C36.5941 27.104 36.9061 27.1707 37.1675 27.304C37.4341 27.432 37.6341 27.608 37.7675 27.832C37.9061 28.056 37.9755 28.3093 37.9755 28.592C37.9755 28.9227 37.8795 29.208 37.6875 29.448C37.5008 29.688 37.2555 29.8427 36.9515 29.912V29.952C37.2981 30.0373 37.5728 30.2053 37.7755 30.456C37.9781 30.7067 38.0795 31.0347 38.0795 31.44C38.0795 31.744 38.0101 32.0187 37.8715 32.264C37.7328 32.504 37.5248 32.6933 37.2475 32.832C36.9701 32.9707 36.6368 33.04 36.2475 33.04C35.6821 33.04 35.2181 32.8933 34.8555 32.6C34.4928 32.3013 34.2901 31.88 34.2475 31.336H34.9515C34.9888 31.656 35.1195 31.9173 35.3435 32.12C35.5675 32.3227 35.8661 32.424 36.2395 32.424C36.6128 32.424 36.8955 32.328 37.0875 32.136C37.2848 31.9387 37.3835 31.6853 37.3835 31.376C37.3835 30.976 37.2501 30.688 36.9835 30.512C36.7168 30.336 36.3141 30.248 35.7755 30.248H35.5915V29.64H35.7835C36.2741 29.6347 36.6448 29.5547 36.8955 29.4C37.1461 29.24 37.2715 28.9947 37.2715 28.664C37.2715 28.3813 37.1781 28.1547 36.9915 27.984C36.8101 27.8133 36.5488 27.728 36.2075 27.728C35.8768 27.728 35.6101 27.8133 35.4075 27.984C35.2048 28.1547 35.0848 28.384 35.0475 28.672H34.3355ZM39.0624 30.048C39.0624 29.1307 39.2117 28.416 39.5104 27.904C39.8091 27.3867 40.3317 27.128 41.0784 27.128C41.8197 27.128 42.3397 27.3867 42.6384 27.904C42.9371 28.416 43.0864 29.1307 43.0864 30.048C43.0864 30.9813 42.9371 31.7067 42.6384 32.224C42.3397 32.7413 41.8197 33 41.0784 33C40.3317 33 39.8091 32.7413 39.5104 32.224C39.2117 31.7067 39.0624 30.9813 39.0624 30.048ZM42.3664 30.048C42.3664 29.584 42.3344 29.192 42.2704 28.872C42.2117 28.5467 42.0864 28.2853 41.8944 28.088C41.7077 27.8907 41.4357 27.792 41.0784 27.792C40.7157 27.792 40.4384 27.8907 40.2464 28.088C40.0597 28.2853 39.9344 28.5467 39.8704 28.872C39.8117 29.192 39.7824 29.584 39.7824 30.048C39.7824 30.528 39.8117 30.9307 39.8704 31.256C39.9344 31.5813 40.0597 31.8427 40.2464 32.04C40.4384 32.2373 40.7157 32.336 41.0784 32.336C41.4357 32.336 41.7077 32.2373 41.8944 32.04C42.0864 31.8427 42.2117 31.5813 42.2704 31.256C42.3344 30.9307 42.3664 30.528 42.3664 30.048ZM49.3627 33L47.0667 30.456V33H46.3387V27.424H47.0667V30.008L49.3707 27.424H50.2907L47.7627 30.216L50.3147 33H49.3627ZM50.8557 30.8C50.8557 30.3467 50.9464 29.952 51.1277 29.616C51.3091 29.2747 51.5597 29.0107 51.8797 28.824C52.2051 28.6373 52.5757 28.544 52.9917 28.544C53.5304 28.544 53.9731 28.6747 54.3197 28.936C54.6717 29.1973 54.9037 29.56 55.0157 30.024H54.2317C54.1571 29.7573 54.0104 29.5467 53.7917 29.392C53.5784 29.2373 53.3117 29.16 52.9917 29.16C52.5757 29.16 52.2397 29.304 51.9837 29.592C51.7277 29.8747 51.5997 30.2773 51.5997 30.8C51.5997 31.328 51.7277 31.736 51.9837 32.024C52.2397 32.312 52.5757 32.456 52.9917 32.456C53.3117 32.456 53.5784 32.3813 53.7917 32.232C54.0051 32.0827 54.1517 31.8693 54.2317 31.592H55.0157C54.8984 32.04 54.6637 32.4 54.3117 32.672C53.9597 32.9387 53.5197 33.072 52.9917 33.072C52.5757 33.072 52.2051 32.9787 51.8797 32.792C51.5597 32.6053 51.3091 32.3413 51.1277 32C50.9464 31.6587 50.8557 31.2587 50.8557 30.8ZM55.7151 30.792C55.7151 30.344 55.8058 29.952 55.9871 29.616C56.1684 29.2747 56.4164 29.0107 56.7311 28.824C57.0511 28.6373 57.4058 28.544 57.7951 28.544C58.1791 28.544 58.5124 28.6267 58.7951 28.792C59.0778 28.9573 59.2884 29.1653 59.4271 29.416V28.616H60.1631V33H59.4271V32.184C59.2831 32.44 59.0671 32.6533 58.7791 32.824C58.4964 32.9893 58.1658 33.072 57.7871 33.072C57.3978 33.072 57.0458 32.976 56.7311 32.784C56.4164 32.592 56.1684 32.3227 55.9871 31.976C55.8058 31.6293 55.7151 31.2347 55.7151 30.792ZM59.4271 30.8C59.4271 30.4693 59.3604 30.1813 59.2271 29.936C59.0938 29.6907 58.9124 29.504 58.6831 29.376C58.4591 29.2427 58.2111 29.176 57.9391 29.176C57.6671 29.176 57.4191 29.24 57.1951 29.368C56.9711 29.496 56.7924 29.6827 56.6591 29.928C56.5258 30.1733 56.4591 30.4613 56.4591 30.792C56.4591 31.128 56.5258 31.4213 56.6591 31.672C56.7924 31.9173 56.9711 32.1067 57.1951 32.24C57.4191 32.368 57.6671 32.432 57.9391 32.432C58.2111 32.432 58.4591 32.368 58.6831 32.24C58.9124 32.1067 59.0938 31.9173 59.2271 31.672C59.3604 31.4213 59.4271 31.1307 59.4271 30.8ZM62.1213 27.08V33H61.3933V27.08H62.1213ZM41.1057 39.08V45H40.3777V39.08H41.1057ZM46.3465 42.64C46.3465 42.7787 46.3385 42.9253 46.3225 43.08H42.8185C42.8451 43.512 42.9918 43.8507 43.2585 44.096C43.5305 44.336 43.8585 44.456 44.2425 44.456C44.5571 44.456 44.8185 44.384 45.0265 44.24C45.2398 44.0907 45.3891 43.8933 45.4745 43.648H46.2585C46.1411 44.0693 45.9065 44.4133 45.5545 44.68C45.2025 44.9413 44.7651 45.072 44.2425 45.072C43.8265 45.072 43.4531 44.9787 43.1225 44.792C42.7971 44.6053 42.5411 44.3413 42.3545 44C42.1678 43.6533 42.0745 43.2533 42.0745 42.8C42.0745 42.3467 42.1651 41.9493 42.3465 41.608C42.5278 41.2667 42.7811 41.0053 43.1065 40.824C43.4371 40.6373 43.8158 40.544 44.2425 40.544C44.6585 40.544 45.0265 40.6347 45.3465 40.816C45.6665 40.9973 45.9118 41.248 46.0825 41.568C46.2585 41.8827 46.3465 42.24 46.3465 42.64ZM45.5945 42.488C45.5945 42.2107 45.5331 41.9733 45.4105 41.776C45.2878 41.5733 45.1198 41.4213 44.9065 41.32C44.6985 41.2133 44.4665 41.16 44.2105 41.16C43.8425 41.16 43.5278 41.2773 43.2665 41.512C43.0105 41.7467 42.8638 42.072 42.8265 42.488H45.5945ZM49.0914 41.216H48.1714V45H47.4434V41.216H46.8754V40.616H47.4434V40.304C47.4434 39.8133 47.5687 39.456 47.8194 39.232C48.0754 39.0027 48.4834 38.888 49.0434 38.888V39.496C48.7234 39.496 48.4967 39.56 48.3634 39.688C48.2354 39.8107 48.1714 40.016 48.1714 40.304V40.616H49.0914V41.216ZM50.8282 41.216V43.8C50.8282 44.0133 50.8736 44.1653 50.9642 44.256C51.0549 44.3413 51.2122 44.384 51.4362 44.384H51.9722V45H51.3162C50.9109 45 50.6069 44.9067 50.4042 44.72C50.2016 44.5333 50.1002 44.2267 50.1002 43.8V41.216H49.5322V40.616H50.1002V39.512H50.8282V40.616H51.9722V41.216H50.8282Z" fill="white"/>
<defs>
<filter id="filter0_d_2005_1388" x="0" y="0" width="92" height="92" filterUnits="userSpaceOnUse" color-interpolation-filters="sRGB">
<feFlood flood-opacity="0" result="BackgroundImageFix"/>
<feColorMatrix in="SourceAlpha" type="matrix" values="0 0 0 0 0 0 0 0 0 0 0 0 0 0 0 0 0 0 127 0" result="hardAlpha"/>
<feOffset dy="10"/>
<feGaussianBlur stdDeviation="11"/>
<feColorMatrix type="matrix" values="0 0 0 0 0.584314 0 0 0 0 0.678431 0 0 0 0 0.996078 0 0 0 0.3 0"/>
<feBlend mode="normal" in2="BackgroundImageFix" result="effect1_dropShadow_2005_1388"/>
<feBlend mode="normal" in="SourceGraphic" in2="effect1_dropShadow_2005_1388" result="shape"/>
</filter>
<linearGradient id="paint0_linear_2005_1388" x1="46" y1="-31.8857" x2="46" y2="47.7857" gradientUnits="userSpaceOnUse">
<stop stop-color="#972FE8"/>
<stop offset="1" stop-color="#2252A9"/>
</linearGradient>
<linearGradient id="paint1_linear_2005_1388" x1="70" y1="60" x2="6.02592" y2="55.0496" gradientUnits="userSpaceOnUse">
<stop stop-color="#4B6DAA"/>
<stop offset="1" stop-color="#86B0D4"/>
</linearGradient>
</defs>
</svg>
