<svg width="150" height="57" viewBox="0 0 150 57" fill="none" xmlns="http://www.w3.org/2000/svg">
<path fill-rule="evenodd" clip-rule="evenodd" d="M55.6551 23.867C59.8441 23.867 63.4631 26.318 65.1521 29.864C66.957 29.043 68.9611 28.585 71.0721 28.585C71.14 28.585 71.2081 28.587 71.2751 28.588C71.1421 27.805 71.0721 27 71.0721 26.179C71.0721 18.281 77.4741 11.879 85.3731 11.879C89.3101 11.879 92.8751 13.47 95.4621 16.045C98.048 13.47 101.613 11.879 105.551 11.879C108.072 11.879 110.44 12.532 112.496 13.677C115.222 5.72 122.766 0 131.646 0C140.59 0 148.178 5.802 150.855 13.847C152.979 12.597 155.454 11.879 158.096 11.879C165.994 11.879 172.397 18.281 172.397 26.179C172.397 27.024 172.323 27.851 172.182 28.656C172.653 28.609 173.129 28.585 173.612 28.585C181.51 28.585 187.912 34.987 187.912 42.885C187.912 44.653 187.591 46.346 187.004 47.909H195.417C197.968 47.909 200.055 49.996 200.055 52.547C200.055 55.098 197.968 57.186 195.417 57.186H173.612H167.428H74.4601H71.0711H71.037H67.0941H67.0641H62.5171H-5.84995H-8.34094H-26.362C-28.9129 57.186 -31 55.099 -31 52.548C-31 49.997 -28.9129 47.909 -26.362 47.909H-18.7849C-18.8329 47.502 -18.8579 47.089 -18.8579 46.669C-18.8579 40.861 -14.1499 36.153 -8.34094 36.153C-8.29094 36.153 -8.24094 36.154 -8.19194 36.155C-8.28995 35.579 -8.34094 34.987 -8.34094 34.384C-8.34094 28.576 -3.63295 23.868 2.17505 23.868C5.07005 23.868 7.69305 25.038 9.59406 26.932C11.496 25.038 14.119 23.868 17.0141 23.868C18.8681 23.868 20.6091 24.348 22.121 25.19C24.125 19.339 29.673 15.132 36.2041 15.132C42.7811 15.132 48.3611 19.399 50.33 25.315C51.8911 24.395 53.7111 23.867 55.6551 23.867Z" fill="#6996C8"/>
<path fill-rule="evenodd" clip-rule="evenodd" d="M186.544 57.1852H173.611H167.427H74.4591H71.0701H71.0361H67.0931H67.0631H62.5161H-5.85094H-8.34193H-11.9179C-10.8019 56.7822 -9.59793 56.5612 -8.34193 56.5612C-8.29193 56.5612 -8.24193 56.5622 -8.19293 56.5632C-8.29094 55.9872 -8.34193 55.3962 -8.34193 54.7922C-8.34193 48.9842 -3.63393 44.2762 2.17407 44.2762C5.06908 44.2762 7.69206 45.4462 9.59306 47.3402C11.4951 45.4462 14.1181 44.2762 17.0131 44.2762C18.8671 44.2762 20.6081 44.7562 22.1201 45.5982C24.1241 39.7472 29.6721 35.5402 36.2031 35.5402C42.7801 35.5402 48.3601 39.8072 50.3291 45.7232C51.8911 44.8042 53.7111 44.2762 55.6541 44.2762C59.8431 44.2762 63.4621 46.7272 65.1511 50.2732C66.9561 49.4522 68.9601 48.9932 71.0711 48.9932C71.1391 48.9932 71.2071 48.9952 71.2741 48.9962C71.1411 48.2132 71.0711 47.4082 71.0711 46.5872C71.0711 38.6892 77.4731 32.2872 85.3721 32.2872C89.3091 32.2872 92.8741 33.8782 95.4611 36.4532C98.0471 33.8782 101.612 32.2872 105.55 32.2872C108.071 32.2872 110.439 32.9402 112.495 34.0852C115.221 26.1282 122.765 20.4082 131.645 20.4082C140.589 20.4082 148.177 26.2102 150.854 34.2552C152.978 33.0052 155.453 32.2872 158.095 32.2872C165.993 32.2872 172.396 38.6892 172.396 46.5872C172.396 47.4322 172.322 48.2602 172.181 49.0642C172.652 49.0172 173.128 48.9932 173.611 48.9932C179.324 48.9932 184.253 52.3432 186.544 57.1852Z" fill="#E4EDF5"/>
</svg>
