<svg width="250" height="217" viewBox="0 0 250 217" fill="none" xmlns="http://www.w3.org/2000/svg">
<g id="Group">
<path id="Vector" d="M220.555 213.517C218.535 213.295 216.512 213.134 214.468 213.036C213.902 213.012 213.322 212.986 212.743 212.962C211.153 212.986 206.182 213.051 205.278 213.054C205.182 213.049 205.088 213.041 204.994 213.036C204.428 213.012 48.6351 212.949 48.6351 212.949C48.5631 212.956 48.4893 212.96 48.4173 212.964C45.9967 212.958 39.1609 212.949 39.1609 212.949C39.0373 212.962 38.9156 212.962 38.792 212.973C37.9045 213.034 37.0171 213.108 36.1425 213.208C33.875 213.443 33.875 216.493 36.1425 216.728C37.03 216.826 37.9045 216.902 38.792 216.976C38.9027 216.989 39.0263 216.989 39.137 217C39.137 217 45.5613 216.991 48.3786 216.983C48.4561 216.989 48.5373 216.991 48.6111 217C48.6111 217 204.428 216.926 205.007 216.902C205.101 216.896 205.195 216.889 205.289 216.883C206.182 216.887 211.155 216.95 212.743 216.976C213.322 216.952 213.902 216.926 214.481 216.902C216.527 216.804 218.547 216.643 220.555 216.421C222.402 216.21 222.415 213.728 220.555 213.517Z" fill="#C6C6C6"/>
<g id="Group_2">
<path id="Vector_2" d="M169.829 1.64112C179.661 6.57272 180.054 20.4278 186.258 29.527C197.841 46.5102 225.419 42.4535 240.406 56.5084C248.321 63.9298 251.374 75.7353 249.433 86.4254C247.492 97.1155 241.005 106.64 232.67 113.583C227.162 118.17 220.083 123.309 220.939 130.436C221.243 132.976 222.583 135.251 223.526 137.628C227.745 148.285 223.54 160.919 215.635 169.203C207.729 177.486 196.76 182.111 185.786 185.335C176.144 188.167 166.238 190.094 156.24 191.082C150.733 191.626 145.078 191.915 139.984 194.083C134.886 196.254 130.72 200.161 125.82 202.751C114.109 208.94 99.9525 206.924 86.9065 204.677C70.1132 201.785 53.3144 198.77 36.8827 194.249C30.7278 192.557 24.4474 190.557 19.5525 186.448C14.6577 182.342 11.429 175.618 13.1725 169.462C14.6393 164.286 19.1097 160.662 22.7628 156.72C26.416 152.78 29.5599 147.234 27.5857 142.231C25.2647 136.348 17.7242 135.079 12.3257 131.805C6.56555 128.311 2.93087 122.003 1.31465 115.449C-0.301582 108.897 -0.120783 102.045 0.259289 95.3045C0.595081 89.3315 1.12091 83.2049 3.71868 77.8182C8.67991 67.5388 20.2813 62.0227 31.5617 60.4374C40.6964 59.1518 45.3144 58.817 50.259 49.5809C56.2645 38.3636 60.187 25.9421 67.7885 15.7441C75.3899 5.54609 88.3124 -2.25644 100.53 1.2175C108.218 3.40398 114.181 9.59163 121.657 12.4274C130.179 15.659 137.105 14.1144 143.687 8.72034C150.626 3.03587 160.627 -2.97601 169.829 1.64112Z" fill="#F6F6F6"/>
<path id="Vector_3" d="M123.226 151.152C150.089 156.837 183.572 160.144 183.572 160.144C182.786 163.503 183.448 169.985 184.679 177.12C187.155 191.437 191.923 208.459 191.923 208.459C196.841 209.86 200.493 207.009 200.493 207.009C199.793 192.372 203.703 152.419 196.229 147.795C183.769 140.085 138.736 127.456 131.166 126.918C125.947 126.559 120.849 127.412 118.587 131.326C117.635 132.976 117.178 135.19 117.44 138.08C117.471 138.438 117.515 138.792 117.569 139.141C119.111 148.753 110.868 148.537 123.226 151.152Z" fill="#F5A784"/>
<g id="Group_3">
<path id="Vector_4" d="M129.571 59.9711C129.349 60.576 128.93 61.0458 128.683 61.6137C128.388 62.3185 128.425 63.1583 128.13 63.8871C128.043 64.0851 127.39 65.5187 127.155 64.6659C126.995 64.653 126.834 64.6418 126.687 64.6289C122.67 64.3699 118.654 64.0721 114.661 63.6522C113.526 63.5283 112.394 63.4802 111.272 63.3063C110.287 63.1454 109.868 62.9474 109.386 62.2445C109.299 62.1335 109.229 62.0077 109.152 61.8745C108.179 60.1727 107.785 58.1693 107.809 56.2289C107.822 55.4501 107.882 54.6732 108.117 53.9315C108.351 53.1416 108.77 52.4127 109.263 51.745C110.753 49.7435 112.91 48.3099 115.239 47.422C115.115 46.7801 114.032 46.3842 113.637 45.8533C113.168 45.1985 112.886 44.3957 112.947 43.5799C112.997 42.9861 113.205 42.4312 113.502 41.9114C114.327 40.4667 115.855 39.416 117.519 39.255C118.997 39.1181 120.513 39.7119 121.499 40.7996C121.622 40.9365 121.744 41.0845 121.857 41.2436C122.805 42.6272 122.879 44.5658 121.991 45.9754C121.744 46.3712 121.425 46.8892 121.707 47.261C121.831 47.422 122.028 47.496 122.213 47.557C123.753 48.1008 125.281 48.7187 126.574 49.7065C128.286 51.0032 129.506 52.9547 129.938 55.0672C130.274 56.684 130.137 58.4006 129.571 59.9711Z" fill="#3B2645"/>
<path id="Vector_5" d="M127.526 61.3456C127.526 61.3456 129.159 59.3793 130.794 61.3456C132.426 63.312 129.65 67.0726 127.526 67.2391C127.526 67.2391 127.281 62.1928 127.526 61.3456Z" fill="#E0855C"/>
<path id="Vector_6" d="M139.046 97.3893C139.009 97.9701 138.972 98.562 138.923 99.1429C138.098 110.915 136.889 123.825 136.458 128.322C136.434 128.644 136.297 129.977 136.297 129.977C136.297 129.977 133.637 130.682 129.458 131.213C123.605 131.955 114.808 132.349 106.183 129.977C106.183 129.977 106.168 129.841 106.144 129.593C105.849 126.664 103.965 108.087 103.336 104.234C103.249 103.677 103.135 103.111 103.015 102.528C102.812 101.54 102.596 100.564 102.349 99.5868C100.674 92.9275 97.9505 86.196 97.0871 84.1576C96.9395 83.7876 97.0742 83.3677 97.4192 83.1568C98.6277 82.4039 101.868 80.7483 106.39 79.7346C106.698 79.6736 107.006 79.6107 107.327 79.5497C108.225 79.3887 109.176 79.2407 110.161 79.1538C110.727 79.0928 111.307 79.0428 111.899 79.0169C111.936 79.004 111.986 79.004 112.022 79.0169C112.367 78.9799 112.725 78.967 113.081 78.967C113.081 78.967 113.081 77.7942 113.032 76.1756C112.995 75.2359 112.958 74.1612 112.884 73.0753C112.81 71.4937 112.631 69.9047 112.478 68.6654C112.463 68.5414 112.441 68.4305 112.417 68.3195C112.417 68.1844 112.491 68.2455 112.615 68.3324C112.701 68.4064 112.81 68.4822 112.947 68.5784C112.984 68.6043 113.021 68.6284 113.057 68.6654C113.353 68.8633 113.661 69.0612 114.019 69.2703C114.574 69.6032 115.251 69.9621 116.052 70.284C116.176 70.3339 116.31 70.382 116.434 70.4319C116.471 70.456 116.521 70.4689 116.57 70.4819C116.731 70.5559 116.891 70.6003 117.063 70.6539C117.609 70.8259 118.185 70.9998 118.788 71.1238C119.146 71.1978 119.515 71.2607 119.897 71.3088C120.155 71.3458 120.426 71.3698 120.711 71.3957C121.266 71.4456 121.843 71.4456 122.436 71.4197C122.941 71.3975 123.41 71.3587 123.89 71.2718C124.148 71.2477 124.393 71.1922 124.639 71.1423L125.146 76.4716C125.146 76.4956 125.343 78.671 125.343 78.671C125.343 78.671 125.504 78.671 125.799 78.671C125.91 78.671 126.033 78.671 126.168 78.684C126.882 78.6969 128.017 78.721 129.334 78.7949C130.48 78.856 131.773 78.9559 133.067 79.1039C133.449 79.1538 133.843 79.2019 134.225 79.2519C136.456 79.5608 139.683 79.4128 139.709 80.8075C139.784 84.6163 139.489 90.7429 139.046 97.3893Z" fill="#F5A784"/>
<path id="Vector_7" d="M112.382 68.1399C114.283 76.7915 122.965 76.1977 125.002 75.0526L124.641 71.144C117.486 72.609 112.382 68.1399 112.382 68.1399Z" fill="#E0855C"/>
<path id="Vector_8" d="M127.154 55.6631C128.238 56.7951 128.329 59.3349 128.419 62.143C128.694 70.6447 126.154 73.2992 121.823 73.7672C117.493 74.2352 112.962 72.5648 112.028 64.6828C111.561 60.7408 111.065 57.1004 112.495 55.3967C114.626 52.8569 123.821 52.1891 127.154 55.6631Z" fill="#F5A784"/>
<path id="Vector_9" d="M112.629 63.5431C112.629 63.5431 111.305 60.0229 109.213 61.8875C107.12 63.754 110.011 69.0722 113.211 68.6782C113.211 68.6782 113.65 64.7474 112.629 63.5431Z" fill="#F5A784"/>
<path id="Vector_10" d="M110.19 63.4895C110.653 63.5709 111.126 64.0074 111.461 64.3219C111.812 64.6493 112.22 65.0582 112.395 65.5132C112.45 65.6556 112.251 65.7426 112.155 65.6538C111.884 65.4003 111.666 65.0988 111.413 64.8251C111.233 65.0211 111.05 65.2172 110.799 65.3116C110.607 65.3819 110.463 65.1432 110.548 64.9841C110.657 64.7807 110.858 64.6327 111.055 64.4976C110.723 64.2405 110.323 64.0389 110.046 63.7392C109.941 63.6246 110.048 63.4654 110.19 63.4895Z" fill="#E0855C"/>
<path id="Vector_11" d="M121.367 65.4058C121.738 65.3503 122.591 65.5723 122.766 65.1709C122.912 64.836 122.314 62.8605 122.229 62.5219C121.925 61.3011 121.603 60.4742 121.375 59.0073C121.365 58.9426 121.476 58.9074 121.504 58.9721C122.364 60.9181 122.685 63.3266 123.205 65.3929C123.234 65.5057 123.15 65.6259 123.03 65.6241C122.485 65.6148 121.956 65.7314 121.413 65.7332C121.229 65.7351 121.177 65.4354 121.367 65.4058Z" fill="#E0855C"/>
<path id="Vector_12" d="M123.893 57.9882C124.419 57.72 125.401 57.6478 125.783 58.1972C125.853 58.2971 125.76 58.447 125.642 58.4414C125.382 58.4285 125.152 58.3008 124.89 58.2805C124.605 58.2564 124.338 58.3212 124.069 58.4063C123.825 58.4821 123.661 58.1066 123.893 57.9882Z" fill="#3B2645"/>
<path id="Vector_13" d="M116.168 58.6319C116.467 57.8846 117.768 57.8143 118.323 58.2768C118.45 58.3822 118.369 58.582 118.231 58.6264C117.908 58.7281 117.563 58.6042 117.227 58.6356C116.932 58.6634 116.697 58.7929 116.423 58.8891C116.284 58.9372 116.111 58.7762 116.168 58.6319Z" fill="#3B2645"/>
<path id="Vector_14" d="M118.84 60.9701C118.275 60.7296 117.605 60.7148 117 60.7685C116.484 60.8129 115.81 60.8739 115.458 61.292C115.424 61.3308 115.43 61.4104 115.491 61.4215C115.989 61.501 116.496 61.2716 116.998 61.2309C117.592 61.1847 118.15 61.3142 118.736 61.3475C118.93 61.3586 119.026 61.0497 118.84 60.9701Z" fill="#3B2645"/>
<path id="Vector_15" d="M125.289 60.4319C124.714 60.43 124.125 60.6039 123.682 60.9758C123.424 61.194 123.752 61.5399 124.02 61.416C124.474 61.2033 124.867 61.0387 125.383 61.0719C125.786 61.0978 126.142 61.3476 126.535 61.3124C126.699 61.2976 126.793 61.1441 126.717 60.9924C126.483 60.517 125.771 60.4319 125.289 60.4319Z" fill="#3B2645"/>
<path id="Vector_16" d="M123.604 67.783C122.768 67.9569 122.043 68.2195 121.17 68.079C120.375 67.9513 119.819 67.4685 119.098 67.2003C118.954 67.1466 118.853 67.3242 118.914 67.4408C119.687 68.9317 122.624 69.1463 123.823 68.1604C124.013 68.0068 123.805 67.7404 123.604 67.783Z" fill="#E0855C"/>
</g>
<path id="Vector_17" d="M231.123 78.0679C225.62 77.3243 210.815 78.2159 210.496 78.4638C206.557 79.2888 184.369 83.9041 180.015 84.0724C176.393 84.2001 161.696 82.6185 151.246 81.4531C149.116 81.2071 147.166 80.9906 145.515 80.7964C144.596 80.6984 135.406 79.2888 135.406 79.2888C129.439 78.6247 131.86 81.923 131.331 86.2719C131.224 87.1191 131.301 88.044 131.576 89.054C132.067 90.8095 133.382 92.2024 135.017 92.983C136.914 93.8672 143.015 94.6145 150.258 95.1436C151.137 95.2212 152.037 95.2712 152.952 95.3322C164.616 96.0833 178.19 96.2997 182.188 95.7022C192.017 94.2482 207.459 88.1106 213.083 85.7817C213.14 85.7724 213.195 85.7724 213.253 85.7521C217.968 84.1483 222.448 85.0806 227.267 84.5497C227.467 84.5275 227.703 84.4757 227.775 84.2889C227.812 84.1908 227.793 84.0817 227.76 83.9837C227.349 82.8109 225.54 83.3695 224.786 82.6925C225.422 82.1338 226.546 82.0265 227.326 81.6418C228.777 80.9241 230.092 79.9066 231.435 79.0132C231.609 78.8985 231.802 78.7468 231.802 78.5378C231.802 78.2381 231.422 78.1086 231.123 78.0679Z" fill="#F5A784"/>
<path id="Vector_18" d="M12.8753 78.0679C18.3771 77.3243 33.1833 78.2159 33.5025 78.4638C37.4416 79.2888 59.6296 83.9041 63.9838 84.0724C67.6056 84.2001 82.3029 82.6185 92.753 81.4531C94.8822 81.2071 96.8324 80.9906 98.4837 80.7964C99.4025 80.6984 108.592 79.2888 108.592 79.2888C114.559 78.6247 112.139 81.923 112.668 86.2719C112.775 87.1191 112.698 88.044 112.423 89.054C111.932 90.8095 110.618 92.2024 108.982 92.983C107.085 93.8672 100.984 94.6145 93.7401 95.1436C92.8619 95.2212 91.9616 95.2712 91.0464 95.3322C79.3823 96.0833 65.8085 96.2997 61.8104 95.7022C51.982 94.2482 36.5393 88.1106 30.9157 85.7817C30.8585 85.7724 30.8032 85.7724 30.746 85.7521C26.0302 84.1483 21.5505 85.0806 16.7313 84.5497C16.5321 84.5275 16.2959 84.4757 16.224 84.2889C16.1852 84.1908 16.2055 84.0817 16.2387 83.9837C16.6502 82.8109 18.4583 83.3695 19.2129 82.6925C18.5763 82.1338 17.4527 82.0265 16.6723 81.6418C15.2221 80.9241 13.9066 79.9066 12.5635 79.0132C12.39 78.8985 12.1963 78.7468 12.1963 78.5378C12.1963 78.2381 12.5745 78.1086 12.8753 78.0679Z" fill="#F5A784"/>
<path id="Vector_19" d="M130.117 129.038C130.202 129.422 121.357 172.29 97.0284 184.591C81.1687 192.612 63.6725 197.851 46.2334 201.103C45.5157 201.236 44.7925 201.371 44.073 201.482C43.9881 203.43 44.2316 205.905 45.1338 207.631C45.857 209.016 46.691 210.441 48.2261 211.008C48.5065 211.112 48.8072 211.192 49.0378 211.382C49.6725 211.907 49.4105 213.021 48.7463 213.509C48.0821 213.998 47.2021 214.037 46.3792 214.057C43.5969 214.122 40.4475 214.36 39.1246 211.586C38.3036 209.867 37.6523 208.028 37.0601 206.219C36.1247 203.358 33.2999 195.646 37.1486 194.626C50.0471 191.215 82.6484 174.025 88.1114 170.908C93.0487 168.093 98.0616 138.614 106.143 129.591C114.228 120.569 128.705 122.687 130.117 129.038Z" fill="#F5A784"/>
<path id="Vector_20" d="M191.186 205.755C191.29 206.637 191.361 207.525 191.409 208.411C191.524 210.533 189.898 213.058 192.052 214.61C193.201 215.439 194.769 215.317 196.101 215.396C199.026 215.57 201.957 215.455 204.882 215.363C206.799 215.302 208.718 215.217 210.633 215.117C212.227 215.032 214.723 215.311 216.075 214.471C216.245 214.366 216.417 214.225 216.463 214.029C216.503 213.859 216.439 213.678 216.35 213.526C216.002 212.93 215.317 212.633 214.666 212.405C211.738 211.382 208.603 211.025 205.697 209.939C203.468 209.107 201.269 207.718 200.003 205.646C199.099 204.164 199.018 202.503 197.267 201.721C194.478 200.472 190.801 202.457 191.186 205.755Z" fill="#F5A784"/>
<path id="Vector_21" d="M138.923 99.1429C138.098 110.915 136.89 123.825 136.458 128.322C134.659 129.112 132.244 130.138 129.46 131.213C123.607 131.955 114.81 132.349 106.185 129.977C106.185 129.977 106.17 129.84 106.146 129.593C105.851 126.664 103.967 108.087 103.338 104.234C103.251 103.677 103.137 103.111 103.017 102.528C102.814 101.54 102.598 100.564 102.351 99.5868C104.211 96.9564 107.008 91.0629 106.392 79.7346C106.7 79.6736 107.008 79.6107 107.329 79.5497C108.227 79.3887 109.178 79.2407 110.163 79.1538C110.681 83.5896 112.75 95.3988 119.995 95.225C128.275 95.027 129.261 84.7495 129.334 78.7949C130.48 78.856 131.773 78.9559 133.067 79.1039C133.082 83.4676 133.587 95.5117 138.923 99.1429Z" fill="#86B0D4"/>
<path id="Vector_22" d="M200.54 193.907C195.623 197.057 188.317 194.438 188.317 194.438C182.033 182.776 181.54 161.565 181.54 161.565C181.54 161.565 145.526 158.884 131.269 158.884C128.177 158.884 125.836 159.515 123.901 160.627C116.902 164.654 115.214 174.957 102.893 184.593C87.1719 196.896 57.9082 198.614 57.9082 198.614C53.6573 195.451 53.9045 188.102 53.9045 188.102C53.9045 188.102 58.3399 182.667 66.6443 177.948C68.1591 177.072 69.8233 176.232 71.5982 175.453C82.7236 170.56 88.0834 166.411 88.4173 166.15C93.9376 147.373 106.011 128.287 106.011 128.287C123.434 132.375 136.592 126.842 136.592 126.842C144.196 126.842 192.088 142.332 198.371 147.373C204.669 152.423 205.457 190.744 200.54 193.907Z" fill="#6996C8"/>
<path id="Vector_23" d="M181.542 161.565C181.542 161.565 145.528 158.884 131.271 158.884C128.179 158.884 125.838 159.515 123.902 160.627C123.963 160.244 125.504 152.227 139.723 152.634C154.286 153.054 181.542 161.565 181.542 161.565Z" fill="#4B6DAA"/>
<path id="Vector_24" d="M70.9784 184.817C69.8456 184.425 68.4544 184.804 67.2662 184.837C66.2145 184.867 64.9544 184.623 64.0467 185.233C63.888 185.339 63.8179 185.59 63.9821 185.733C64.8345 186.474 66.1869 186.347 67.2644 186.345C68.5006 186.343 70.0301 186.512 71.1131 185.857C71.5503 185.594 71.4341 184.974 70.9784 184.817Z" fill="#86B0D4"/>
<path id="Vector_25" d="M88.6963 179.675C87.4712 179.514 86.4841 181.395 85.9066 182.29C85.0929 183.552 84.4435 184.95 84.2627 186.447C84.1926 187.028 85.0837 187.22 85.3384 186.739C85.9878 185.518 86.4933 184.242 87.2553 183.08C87.8107 182.233 89.2738 181.208 89.1483 180.128C89.1169 179.858 88.9638 179.71 88.6963 179.675Z" fill="#86B0D4"/>
<path id="Vector_26" d="M97.6629 165.39C96.6444 165.09 95.6906 165.827 94.7791 166.245C93.5817 166.796 92.4268 167.375 91.3585 168.156C90.9065 168.487 91.1629 169.214 91.7478 169.082C92.9507 168.812 94.0688 168.368 95.1961 167.874C96.1352 167.464 97.5263 167.166 97.9857 166.184C98.1315 165.867 98.019 165.496 97.6629 165.39Z" fill="#86B0D4"/>
<path id="Vector_27" d="M110.886 159.708C110.184 160.646 109.714 161.763 109.199 162.812C108.72 163.787 108.205 164.756 107.83 165.775C107.542 166.561 108.773 167.059 109.168 166.341C109.69 165.392 110.074 164.358 110.493 163.359C110.943 162.286 111.478 161.202 111.721 160.061C111.834 159.53 111.19 159.299 110.886 159.708Z" fill="#86B0D4"/>
<path id="Vector_28" d="M105.55 142.229C105.471 141.831 104.906 141.883 104.798 142.229C104.014 144.728 104.058 147.615 103.932 150.212C103.881 151.282 105.528 151.276 105.587 150.212C105.733 147.621 106.065 144.789 105.55 142.229Z" fill="#86B0D4"/>
<path id="Vector_29" d="M120.204 139.073C119.759 138.007 118.512 137.327 117.574 136.705C116.775 136.176 115.51 135.201 114.506 135.516C114.301 135.579 114.181 135.786 114.235 135.997C114.464 136.907 115.689 137.506 116.408 138.013C117.294 138.636 118.229 139.748 119.298 139.981C119.781 140.087 120.438 139.632 120.204 139.073Z" fill="#86B0D4"/>
<path id="Vector_30" d="M137.513 145.122C135.017 145.176 132.231 145.486 129.807 146.102C129.233 146.249 129.39 147.062 129.941 147.098C132.452 147.26 135.236 147.044 137.72 146.639C138.581 146.498 138.367 145.104 137.513 145.122Z" fill="#86B0D4"/>
<path id="Vector_31" d="M145.044 133.133C144.094 132.486 142.781 132.704 141.67 132.649C140.46 132.588 139.201 132.419 138.008 132.662C137.687 132.726 137.648 133.198 137.917 133.35C139.015 133.966 140.329 134.115 141.561 134.28C142.698 134.432 144.019 134.774 145.044 134.167C145.45 133.927 145.41 133.381 145.044 133.133Z" fill="#86B0D4"/>
<path id="Vector_32" d="M156.11 144.994C155.883 143.995 155.126 143.078 154.587 142.22C154.041 141.352 153.506 140.394 152.783 139.665C152.386 139.266 151.674 139.671 151.835 140.218C152.123 141.206 152.698 142.142 153.191 143.039C153.678 143.929 154.111 145.035 154.872 145.718C155.425 146.213 156.278 145.732 156.11 144.994Z" fill="#86B0D4"/>
<path id="Vector_33" d="M173.281 144.654C171.218 143.947 168.729 143.742 166.629 144.389C166.059 144.565 166.21 145.327 166.764 145.385C168.84 145.599 170.797 145.79 172.83 146.291C173.897 146.555 174.308 145.005 173.281 144.654Z" fill="#86B0D4"/>
<path id="Vector_34" d="M180.184 156.247C179.738 155.386 178.614 154.904 177.819 154.4C176.924 153.833 176.053 153.276 175.07 152.876C174.555 152.667 174.229 153.407 174.559 153.755C175.293 154.528 176.166 155.133 177.028 155.758C177.821 156.335 178.627 157.123 179.624 157.227C180.146 157.281 180.389 156.642 180.184 156.247Z" fill="#86B0D4"/>
<path id="Vector_35" d="M192.963 151.489C192.465 150.455 190.932 150.2 189.924 149.841C188.62 149.375 187.277 148.797 185.882 148.736C185.559 148.722 185.336 149.193 185.603 149.412C186.603 150.233 187.847 150.677 189.03 151.169C190.096 151.613 191.566 152.59 192.705 152.125C192.976 152.016 193.094 151.763 192.963 151.489Z" fill="#86B0D4"/>
<path id="Vector_36" d="M191.703 160.47C190.716 162.817 189.192 166.028 189.895 168.616C189.994 168.982 190.492 169.034 190.686 168.72C191.374 167.597 191.478 166.267 191.745 164.996C192.044 163.577 192.33 162.146 192.695 160.743C192.869 160.081 191.952 159.876 191.703 160.47Z" fill="#86B0D4"/>
<path id="Vector_37" d="M191.861 184.767C191.548 183.781 190.671 182.974 190.022 182.185C189.254 181.25 188.485 180.294 187.537 179.538C187.159 179.236 186.647 179.6 186.863 180.057C187.382 181.151 188.14 182.116 188.873 183.073C189.494 183.886 190.077 184.933 190.961 185.459C191.409 185.725 192.024 185.283 191.861 184.767Z" fill="#86B0D4"/>
<path id="Vector_38" d="M199.297 172.486C199.258 170.838 199.173 169.203 199.011 167.562C198.95 166.948 198.118 166.948 198.059 167.562C197.897 169.205 197.812 170.838 197.773 172.486C197.74 173.938 197.566 175.455 198.011 176.854C198.175 177.371 198.895 177.371 199.059 176.854C199.502 175.462 199.33 173.933 199.297 172.486Z" fill="#86B0D4"/>
<path id="Vector_39" d="M79.4102 177.242C74.7644 178.193 70.1076 178.182 66.6445 177.947C68.1593 177.07 69.8235 176.23 71.5984 175.451C82.7238 170.558 88.0836 166.409 88.4175 166.148C88.4175 166.148 88.6389 175.351 79.4102 177.242Z" fill="#4B6DAA"/>
<path id="Vector_40" d="M75.0763 55.4892C68.3125 54.5347 61.5192 53.9797 54.7775 52.8014C51.51 52.2298 48.2554 51.5805 45.0119 50.8794C42.0119 50.2302 38.9676 49.3349 35.8754 49.6345C35.5341 49.6678 35.3883 50.2172 35.7868 50.2893C48.7591 52.5887 61.6557 56.2883 74.9047 56.7526C75.6113 56.7748 75.8013 55.5909 75.0763 55.4892Z" fill="#86B0D4"/>
<path id="Vector_41" d="M86.652 45.4188C82.4195 42.287 77.7812 39.5771 73.2997 36.8227C72.8052 36.5193 72.3956 37.263 72.8532 37.5904C77.141 40.6537 81.4509 43.8779 85.9878 46.562C86.735 47.0022 87.3199 45.9127 86.652 45.4188Z" fill="#86B0D4"/>
<path id="Vector_42" d="M159.164 28.8111C156.124 30.8681 153.41 33.5319 150.686 35.9866C148.055 38.358 144.814 40.7702 142.948 43.815C142.784 44.0832 143.107 44.3866 143.371 44.2367C146.34 42.5608 148.773 39.6917 151.31 37.422C154.151 34.8804 157.279 32.5422 159.946 29.8248C160.443 29.318 159.788 28.3875 159.164 28.8111Z" fill="#86B0D4"/>
<path id="Vector_43" d="M186.585 51.0551C180.663 51.3899 174.74 51.7136 168.818 52.0669C163.314 52.3943 157.591 52.3684 152.157 53.3599C151.633 53.4561 151.801 54.2071 152.275 54.2423C157.93 54.6456 163.772 53.9611 169.43 53.6781C175.148 53.3932 180.866 53.0788 186.583 52.7754C187.683 52.7143 187.688 50.994 186.585 51.0551Z" fill="#86B0D4"/>
<path id="Vector_44" d="M116.152 43.3913C115.661 45.8367 118.283 47.2204 118.653 47.4053C116.644 47.0224 115.24 47.4183 115.24 47.4183C115.117 46.7764 114.033 46.3805 113.639 45.8496C113.17 45.1948 112.888 44.392 112.949 43.5762C112.998 42.9824 113.207 42.4275 113.504 41.9077C114.329 40.463 115.856 39.4123 117.521 39.2514C118.998 39.1145 120.515 39.7083 121.5 40.796C118.838 40.2429 116.637 40.9773 116.152 43.3913Z" fill="#291B30"/>
<path id="Vector_45" d="M125.532 113.277C124.561 113.227 123.506 113.662 122.631 114.004C122.037 114.235 121.473 114.531 120.886 114.779C120.347 114.996 119.81 115.212 119.272 115.427C117.783 114.524 117.471 113.649 118.334 112.798C119.465 110.427 122.954 109.097 124.928 107.521C127.294 105.632 129.622 101.932 125.166 101.12C120.735 100.312 113.482 102.737 111.013 106.622C110.892 106.812 111.124 107.001 111.303 106.912C113.611 105.76 115.397 104.099 117.89 103.209C118.799 102.885 119.74 102.628 120.689 102.45C121.914 102.221 127.497 101.1 125.914 105.088C125.342 106.531 122.945 107.604 121.703 108.457C120.393 109.356 119.024 110.268 117.989 111.494C117.109 112.537 115.593 114.805 116.945 116.063C117.932 116.981 119.325 116.361 120.369 115.95C120.978 115.712 121.561 115.392 122.161 115.133C123.987 113.801 125.303 114.515 126.109 117.277C125.499 117.887 124.808 118.386 124.07 118.825C123.58 119.115 124.037 119.901 124.517 119.593C125.808 118.758 128.31 117.125 128.126 115.273C127.995 113.923 126.744 113.34 125.532 113.277Z" fill="#E4EDF5"/>
</g>
</g>
</svg>
