<svg width="16" height="16" viewBox="0 0 16 16" fill="none" xmlns="http://www.w3.org/2000/svg">
<path d="M8.55467 14.5338C10.6387 14.1165 13.3333 12.6171 13.3333 8.74046C13.3333 5.21312 10.7513 2.86379 8.89467 1.78446C8.482 1.54446 8 1.85979 8 2.33646V3.55512C8 4.51646 7.596 6.27112 6.47333 7.00112C5.9 7.37379 5.28 6.81579 5.21067 6.13579L5.15333 5.57712C5.08667 4.92779 4.42533 4.53379 3.90667 4.92979C2.974 5.63979 2 6.88646 2 8.73979C2 13.4805 5.526 14.6665 7.28867 14.6665C7.39178 14.6665 7.49933 14.6631 7.61133 14.6565C7.90867 14.6191 7.61133 14.7225 8.55467 14.5331" fill="#FE4E33"/>
<path d="M5.33331 12.296C5.33331 14.0426 6.74065 14.5826 7.61131 14.6573C7.90865 14.62 7.61131 14.7233 8.55465 14.534C9.24731 14.2893 9.99998 13.6613 9.99998 12.296C9.99998 11.4313 9.45398 10.8973 9.02665 10.6473C8.89598 10.5706 8.74398 10.6673 8.73265 10.818C8.69531 11.2966 8.23531 11.678 7.92265 11.314C7.64598 10.9926 7.52931 10.5226 7.52931 10.222V9.82862C7.52931 9.59262 7.29131 9.43529 7.08731 9.55662C6.32998 10.0053 5.33331 10.9293 5.33331 12.296Z" fill="#FEC356"/>
</svg>
