<svg width="24" height="24" viewBox="0 0 24 24" fill="none" xmlns="http://www.w3.org/2000/svg">
<path d="M16 2L13.7 4.3C13.1503 4.86079 12.8424 5.61474 12.8424 6.4C12.8424 7.18526 13.1503 7.93921 13.7 8.5L15.5 10.3C16.0608 10.8497 16.8147 11.1576 17.6 11.1576C18.3852 11.1576 19.1392 10.8497 19.7 10.3L22 8" stroke="#808080" stroke-linecap="round" stroke-linejoin="round"/>
<path d="M15 14.9998L3.29998 3.2998C2.90086 3.69086 2.58379 4.15762 2.36733 4.67276C2.15086 5.18789 2.03937 5.74104 2.03937 6.2998C2.03937 6.85857 2.15086 7.41172 2.36733 7.92685C2.58379 8.44199 2.90086 8.90875 3.29998 9.2998L10.6 16.5998C11.3 17.2998 12.6 17.2998 13.4 16.5998L15 14.9998ZM15 14.9998L22 21.9998" stroke="#808080" stroke-linecap="round" stroke-linejoin="round"/>
<path d="M2.09998 21.8L8.49998 15.5" stroke="#808080" stroke-linecap="round" stroke-linejoin="round"/>
<path d="M19 5L12 12" stroke="#808080" stroke-linecap="round" stroke-linejoin="round"/>
</svg>
